<svg xmlns="http://www.w3.org/2000/svg" viewBox="0 0 48 48" fill="currentColor">
    <defs>
        <style>.cls-1{fill:#fff}</style>
    </defs>
    <g id="Layer_2" data-name="Layer 2">
        <g id="_1" data-name="1">
            <path class="cls-1" d="M0 0h48v2H0zM0 46h48v2H0zM23 28h2v2h-2zM23 24h2v2h-2z"/>
            <path class="cls-1" d="M44 48H4a1 1 0 0 1-1-1v-3a4 4 0 0 1 4-4h34a4 4 0 0 1 4 4v3a1 1 0 0 1-1 1zM5 46h38v-2a2 2 0 0 0-2-2H7a2 2 0 0 0-2 2zM26 25v-2a13 13 0 0 0 13-13V8H9v2a13 13 0 0 0 13 13v2A15 15 0 0 1 7 10V7a1 1 0 0 1 1-1h32a1 1 0 0 1 1 1v3a15 15 0 0 1-15 15z"/>
            <path class="cls-1" d="M40 42H8a1 1 0 0 1-1-1v-3a15 15 0 0 1 15-15v2A13 13 0 0 0 9 38v2h30v-2a13 13 0 0 0-13-13v-2a15 15 0 0 1 15 15v3a1 1 0 0 1-1 1zM41 8H7a4 4 0 0 1-4-4V1a1 1 0 0 1 1-1h40a1 1 0 0 1 1 1v3a4 4 0 0 1-4 4zM5 2v2a2 2 0 0 0 2 2h34a2 2 0 0 0 2-2V2zM24 19a1.15 1.15 0 0 1-.26 0l-15-4 .52-2L24 17l14.74-4 .52 2-15 4a1.15 1.15 0 0 1-.26 0z"/>
            <path class="cls-1" d="M36.48 41.85 24 34.17l-12.48 7.68-1-1.7 13-8a1 1 0 0 1 1 0l13 8z"/>
        </g>
    </g>
</svg>